<svg id="Capa_1" enable-background="new 0 0 497 497" height="512" viewBox="0 0 497 497" width="512" xmlns="http://www.w3.org/2000/svg"><g><g><path d="m373.5 82.5-15 6.106-15-6.106v-42c0-1.657-1.343-3-3-3h-5.28l-106.146-5.83-66.074 5.83h-6.5c-1.657 0-3 1.343-3 3v42l-15 3.553-15-3.553v-45c0-16.569 13.431-30 30-30h9.5l69.138 6.809 102.862-6.809h8.5c16.569 0 30 13.431 30 30z" fill="#f1f2f2"/></g><g><path d="m388.5 112.5h-60l1-19c0-5.523 4.477-10 10-10l3-1h36c5.523 0 10 4.477 10 10v6l-2.362 6.574z" fill="#9c9fa7"/><path d="m388.5 98.5v14l-30 5.596-30-5.596v-20c0-5.523 4.477-10 10-10h4v12c0 2.209 1.791 4 4 4z" fill="#868491"/></g><g><path d="m168.5 112.5h-60l1-19c0-5.523 4.477-10 10-10l3-1h36c5.523 0 10 4.477 10 10v6l-2.362 6.574z" fill="#9c9fa7"/><path d="m168.5 98.5v14l-32.957 5.553-27.043-5.553v-20c0-5.523 4.477-10 10-10h4v12c0 2.209 1.791 4 4 4z" fill="#868491"/></g><path d="m335.22 37.5h-172.22v-30h172v21.04z" fill="#dee1e1"/><path d="m317 44h-137c-2.761 0-5-2.239-5-5v-33c0-2.761 2.239-5 5-5l11-1h127c2.761 0 5 2.239 5 5v23l-1 11c0 2.761-2.239 5-5 5z" fill="#9c9fa7"/><path d="m323 28v12c0 2.761-2.239 5-5 5h-139c-2.761 0-5-2.239-5-5v-35c0-2.761 2.239-5 5-5h12v25c0 1.657 1.343 3 3 3z" fill="#868491"/><path d="m450 495-400.926-.5c-16.569 0-30-13.431-30-30l.384-263.469 458.723 3.15 3.819 89.819v163.457l-2 7.543c0 16.569-13.431 30-30 30z" fill="#9c9fa7"/><path d="m412 327.5c28.25 0 53.49-13.08 70-33.5v-58.67l-3.479-34.33h-443.521-20v93 173c0 16.569 13.431 30 30 30h79l25.5-7.543 23.5 7.543h151l26.362-7.883 22.638 7.883h79c16.569 0 30-13.431 30-30v-20c0 16.57-13.43 30-30 30l-393.987-.014c-12.702 0-22.999-10.297-22.999-22.999l-.007-134.538c0-3.071 3.304-4.974 5.98-3.467 13.018 7.332 28.033 11.518 44.013 11.518z" fill="#868491"/><path d="m408.564 305.628-321.872.681c-38.66 0-70-31.34-70-70l-.692-112.809c0-5.523 4.477-10 10-10l3-1h16l176.67 15.085 230.33-15.085h20c5.523 0 10 4.477 10 10v115c0 38.66-34.776 68.128-73.436 68.128z" fill="#f1f2f2"/><path d="m412 294.5h-327c-.15 0-.299 0-.449-.001-28.598-.18-52.711-22.18-55.268-50.663-.187-2.087-.283-4.2-.283-6.335v-125h-4c-5.523 0-10 4.477-10 10v102 13c0 38.66 31.34 70 70 70h327c38.66 0 70-31.34 70-70v-13c0 38.659-31.34 69.999-70 69.999z" fill="#dee1e1"/><path d="m410.096 276.011-325.096 1.489c-22.091 0-38.989-17.824-38.989-39.915l-1.011-12.255v-112.83h407v112.787l-.926 12.043c0 22.091-18.887 38.681-40.978 38.681z" fill="#fdcd08"/><path d="m452 217.5v20c0 22.09-17.91 40-40 40h-327c-22.09 0-40-17.91-40-40v-20c0 22.09 17.91 40 40 40h327c22.09 0 40-17.91 40-40z" fill="#faab18"/><g><path d="m127.723 304.862h45.277v45.277h-45.277z" fill="#f1f2f2"/><path d="m173 493h-43.755v-102.947h43.755v86.947l-4.947 9.394z" fill="#f1f2f2"/><g><path d="m184 273h-72v-20c0-5.523 4.477-10 10-10l15.074-1h38.926c5.523 0 10 4.477 10 10v7z" fill="#f1f2f2"/><path d="m135 257.5c-2.209 0-4-1.791-4-4v-1.5c0-5.52 4.48-10 10-10h-20c-5.523 0-10 4.477-10 10v7 14l36.287 8.628 38.713-8.628v-15.5z" fill="#dee1e1"/></g><g fill="#dee1e1"><path d="m124 304.862h20v45.277h-20z"/><path d="m144 472v-81.947h-20v106.947h49v-20h-24c-2.761 0-5-2.239-5-5z"/></g></g><g><path d="m327.723 304.862h45.277v45.277h-45.277z" fill="#f1f2f2"/><path d="m373 493h-43.755v-102.947h43.755v86.947l-4.947 9.394z" fill="#f1f2f2"/><g><path d="m384 273h-72v-20c0-5.523 4.477-10 10-10l15.074-1h38.926c5.523 0 10 4.477 10 10v7z" fill="#f1f2f2"/><path d="m335 257.5c-2.209 0-4-1.791-4-4v-1.5c0-5.52 4.48-10 10-10h-20c-5.523 0-10 4.477-10 10v7 14l36.287 8.628 38.713-8.628v-15.5z" fill="#dee1e1"/></g><g fill="#dee1e1"><path d="m324 304.862h20v45.277h-20z"/><path d="m344 472v-81.947h-20v106.947h49v-20h-24c-2.761 0-5-2.239-5-5z"/></g></g><g><path d="m387.5 311h-78c-2.761 0-5-2.239-5-5v-27c0-2.761 2.239-5 5-5l8-1h71c2.761 0 5 2.239 5 5v20l-1 8c0 2.761-2.239 5-5 5z" fill="#fdcd08"/><path d="m393.5 298v9c0 2.761-2.239 5-5 5h-80c-2.761 0-5-2.239-5-5v-29c0-2.761 2.239-5 5-5h9v21c0 2.209 1.791 4 4 4z" fill="#faab18"/></g><g><path d="m378.5 394h-58c-8.284 0-15-6.716-15-15v-20c0-8.284 4.716-15 13-15l1-1h59c8.284 0 15 6.716 15 15v22l-2 1c0 8.284-4.716 13-13 13z" fill="#fdcd08"/><path d="m393.5 380v1c0 8.284-6.716 15-15 15h-60c-8.284 0-15-6.716-15-15v-23c0-8.284 6.716-15 15-15h1v27c0 5.523 4.477 10 10 10z" fill="#faab18"/></g><g><path d="m187.5 311h-78c-2.761 0-5-2.239-5-5v-27c0-2.761 2.239-5 5-5l8-1h71c2.761 0 5 2.239 5 5v20l-1 8c0 2.761-2.239 5-5 5z" fill="#fdcd08"/><path d="m193.5 298v9c0 2.761-2.239 5-5 5h-80c-2.761 0-5-2.239-5-5v-29c0-2.761 2.239-5 5-5h9v21c0 2.209 1.791 4 4 4z" fill="#faab18"/></g><g><path d="m178.5 394h-58c-8.284 0-15-6.716-15-15v-20c0-8.284 4.716-15 13-15l1-1h59c8.284 0 15 6.716 15 15v22l-2 1c0 8.284-4.716 13-13 13z" fill="#fdcd08"/><path d="m193.5 380v1c0 8.284-6.716 15-15 15h-60c-8.284 0-15-6.716-15-15v-23c0-8.284 6.716-15 15-15h1v27c0 5.523 4.477 10 10 10z" fill="#faab18"/></g></g></svg>